<svg xmlns="http://www.w3.org/2000/svg" xmlns:xlink="http://www.w3.org/1999/xlink" width="300" zoomAndPan="magnify" viewBox="0 0 224.87999 225" height="300" preserveAspectRatio="xMidYMid meet" version="1.0"><defs><clipPath id="9805747ad2"><path d="M 0 0.0585938 L 222.632812 0.0585938 L 222.632812 222.691406 L 0 222.691406 Z M 0 0.0585938 " clip-rule="nonzero"/></clipPath></defs><g clip-path="url(#9805747ad2)"><path fill="#46cc6b" d="M 222.597656 111.414062 C 222.597656 172.859375 172.804688 222.675781 111.382812 222.675781 C 103.269531 222.683594 95.25 221.816406 87.328125 220.066406 C 79.40625 218.3125 71.765625 215.722656 64.414062 212.292969 C 59.972656 210.21875 55.320312 208.882812 50.457031 208.285156 C 45.589844 207.691406 40.753906 207.867188 35.945312 208.8125 L 18.582031 212.230469 C 11.226562 213.679688 5.496094 205.921875 9.039062 199.3125 C 15.90625 186.507812 16.453125 171.203125 10.363281 158.015625 C 7.011719 150.75 4.476562 143.210938 2.757812 135.398438 C 1.039062 127.585938 0.175781 119.679688 0.167969 111.679688 C 0.0234375 50.175781 49.742188 0.238281 111.21875 0.152344 C 172.714844 0.0625 222.597656 49.910156 222.597656 111.414062 Z M 222.597656 111.414062 " fill-opacity="1" fill-rule="nonzero"/></g><path fill="#ffffff" d="M 206.582031 111.414062 C 206.582031 112.972656 206.546875 114.527344 206.46875 116.085938 C 206.390625 117.640625 206.277344 119.195312 206.125 120.746094 C 205.972656 122.296875 205.78125 123.84375 205.554688 125.386719 C 205.324219 126.929688 205.058594 128.464844 204.753906 129.992188 C 204.449219 131.519531 204.109375 133.042969 203.730469 134.554688 C 203.351562 136.066406 202.9375 137.566406 202.484375 139.058594 C 202.03125 140.550781 201.542969 142.03125 201.019531 143.496094 C 200.492188 144.964844 199.933594 146.417969 199.335938 147.859375 C 198.742188 149.300781 198.109375 150.722656 197.441406 152.132812 C 196.777344 153.542969 196.078125 154.933594 195.34375 156.308594 C 194.609375 157.683594 193.839844 159.039062 193.039062 160.375 C 192.238281 161.710938 191.40625 163.027344 190.539062 164.324219 C 189.671875 165.621094 188.777344 166.894531 187.847656 168.148438 C 186.921875 169.398438 185.960938 170.628906 184.972656 171.832031 C 183.984375 173.039062 182.96875 174.21875 181.921875 175.371094 C 180.875 176.527344 179.800781 177.65625 178.699219 178.757812 C 177.597656 179.859375 176.46875 180.933594 175.316406 181.980469 C 174.160156 183.027344 172.980469 184.046875 171.777344 185.035156 C 170.574219 186.023438 169.34375 186.980469 168.09375 187.910156 C 166.84375 188.839844 165.570312 189.734375 164.273438 190.601562 C 162.976562 191.46875 161.660156 192.300781 160.324219 193.101562 C 158.988281 193.902344 157.632812 194.671875 156.261719 195.40625 C 154.886719 196.140625 153.496094 196.84375 152.085938 197.507812 C 150.675781 198.175781 149.253906 198.804688 147.8125 199.402344 C 146.375 200 144.921875 200.558594 143.453125 201.085938 C 141.988281 201.609375 140.507812 202.097656 139.019531 202.550781 C 137.527344 203.003906 136.027344 203.417969 134.515625 203.796875 C 133.003906 204.175781 131.484375 204.519531 129.957031 204.824219 C 128.425781 205.125 126.894531 205.394531 125.351562 205.621094 C 123.808594 205.851562 122.265625 206.042969 120.714844 206.195312 C 119.164062 206.347656 117.609375 206.460938 116.054688 206.539062 C 114.496094 206.613281 112.941406 206.652344 111.382812 206.652344 C 109.824219 206.652344 108.265625 206.613281 106.710938 206.539062 C 105.15625 206.460938 103.601562 206.347656 102.050781 206.195312 C 100.5 206.042969 98.953125 205.851562 97.414062 205.621094 C 95.871094 205.394531 94.339844 205.125 92.808594 204.824219 C 91.28125 204.519531 89.761719 204.175781 88.25 203.796875 C 86.738281 203.417969 85.238281 203.003906 83.746094 202.550781 C 82.257812 202.097656 80.777344 201.609375 79.308594 201.085938 C 77.84375 200.558594 76.390625 200 74.949219 199.402344 C 73.511719 198.804688 72.085938 198.175781 70.679688 197.507812 C 69.269531 196.84375 67.878906 196.140625 66.503906 195.40625 C 65.132812 194.671875 63.777344 193.902344 62.441406 193.101562 C 61.101562 192.300781 59.789062 191.46875 58.492188 190.601562 C 57.195312 189.734375 55.921875 188.839844 54.671875 187.910156 C 53.421875 186.980469 52.191406 186.023438 50.988281 185.035156 C 49.785156 184.046875 48.605469 183.027344 47.449219 181.980469 C 46.296875 180.933594 45.167969 179.859375 44.066406 178.757812 C 42.964844 177.65625 41.890625 176.527344 40.84375 175.371094 C 39.796875 174.21875 38.78125 173.039062 37.792969 171.832031 C 36.804688 170.628906 35.84375 169.398438 34.917969 168.148438 C 33.988281 166.894531 33.09375 165.621094 32.226562 164.324219 C 31.359375 163.027344 30.527344 161.710938 29.726562 160.375 C 28.925781 159.039062 28.15625 157.683594 27.421875 156.308594 C 26.6875 154.933594 25.988281 153.542969 25.324219 152.132812 C 24.65625 150.722656 24.023438 149.300781 23.429688 147.859375 C 22.832031 146.417969 22.273438 144.964844 21.746094 143.496094 C 21.222656 142.03125 20.734375 140.550781 20.28125 139.058594 C 19.828125 137.566406 19.414062 136.066406 19.035156 134.554688 C 18.65625 133.042969 18.316406 131.519531 18.011719 129.992188 C 17.707031 128.464844 17.441406 126.929688 17.210938 125.386719 C 16.984375 123.84375 16.792969 122.296875 16.640625 120.746094 C 16.488281 119.195312 16.375 117.640625 16.296875 116.085938 C 16.21875 114.527344 16.183594 112.972656 16.183594 111.414062 C 16.183594 109.855469 16.21875 108.296875 16.296875 106.738281 C 16.375 105.183594 16.488281 103.628906 16.640625 102.078125 C 16.792969 100.527344 16.984375 98.980469 17.210938 97.4375 C 17.441406 95.894531 17.707031 94.359375 18.011719 92.832031 C 18.316406 91.304688 18.65625 89.78125 19.035156 88.269531 C 19.414062 86.757812 19.828125 85.257812 20.28125 83.765625 C 20.734375 82.273438 21.222656 80.792969 21.746094 79.328125 C 22.273438 77.859375 22.832031 76.40625 23.429688 74.964844 C 24.023438 73.523438 24.65625 72.101562 25.324219 70.691406 C 25.988281 69.28125 26.6875 67.890625 27.421875 66.515625 C 28.15625 65.140625 28.925781 63.785156 29.726562 62.449219 C 30.527344 61.113281 31.359375 59.796875 32.226562 58.5 C 33.09375 57.203125 33.988281 55.929688 34.917969 54.675781 C 35.84375 53.425781 36.804688 52.195312 37.792969 50.992188 C 38.78125 49.789062 39.796875 48.605469 40.84375 47.453125 C 41.890625 46.296875 42.964844 45.167969 44.066406 44.066406 C 45.167969 42.964844 46.296875 41.890625 47.449219 40.84375 C 48.605469 39.796875 49.785156 38.777344 50.988281 37.789062 C 52.191406 36.800781 53.421875 35.84375 54.671875 34.914062 C 55.921875 33.984375 57.195312 33.089844 58.492188 32.222656 C 59.789062 31.355469 61.101562 30.523438 62.441406 29.722656 C 63.777344 28.921875 65.132812 28.152344 66.503906 27.417969 C 67.878906 26.683594 69.269531 25.980469 70.679688 25.316406 C 72.085938 24.648438 73.511719 24.019531 74.949219 23.421875 C 76.390625 22.824219 77.84375 22.265625 79.308594 21.738281 C 80.777344 21.214844 82.257812 20.726562 83.746094 20.273438 C 85.238281 19.820312 86.738281 19.40625 88.25 19.027344 C 89.761719 18.648438 91.28125 18.304688 92.808594 18 C 94.339844 17.699219 95.871094 17.429688 97.414062 17.203125 C 98.953125 16.972656 100.5 16.78125 102.050781 16.628906 C 103.601562 16.476562 105.15625 16.363281 106.710938 16.285156 C 108.265625 16.210938 109.824219 16.171875 111.382812 16.171875 C 112.941406 16.171875 114.496094 16.210938 116.054688 16.285156 C 117.609375 16.363281 119.164062 16.476562 120.714844 16.628906 C 122.265625 16.78125 123.808594 16.972656 125.351562 17.203125 C 126.894531 17.429688 128.425781 17.699219 129.957031 18 C 131.484375 18.304688 133.003906 18.648438 134.515625 19.027344 C 136.027344 19.40625 137.527344 19.820312 139.019531 20.273438 C 140.507812 20.726562 141.988281 21.214844 143.453125 21.738281 C 144.921875 22.265625 146.375 22.824219 147.8125 23.421875 C 149.253906 24.019531 150.675781 24.648438 152.085938 25.316406 C 153.496094 25.980469 154.886719 26.683594 156.261719 27.417969 C 157.632812 28.152344 158.988281 28.921875 160.324219 29.722656 C 161.660156 30.523438 162.976562 31.355469 164.273438 32.222656 C 165.570312 33.089844 166.84375 33.984375 168.09375 34.914062 C 169.34375 35.84375 170.574219 36.800781 171.777344 37.789062 C 172.980469 38.777344 174.160156 39.796875 175.316406 40.84375 C 176.46875 41.890625 177.597656 42.964844 178.699219 44.066406 C 179.800781 45.167969 180.875 46.296875 181.921875 47.453125 C 182.96875 48.605469 183.984375 49.789062 184.972656 50.992188 C 185.960938 52.195312 186.921875 53.425781 187.847656 54.675781 C 188.777344 55.929688 189.671875 57.203125 190.539062 58.5 C 191.40625 59.796875 192.238281 61.113281 193.039062 62.449219 C 193.839844 63.785156 194.609375 65.140625 195.34375 66.515625 C 196.078125 67.890625 196.777344 69.28125 197.441406 70.691406 C 198.109375 72.101562 198.742188 73.523438 199.335938 74.964844 C 199.933594 76.40625 200.492188 77.859375 201.019531 79.328125 C 201.542969 80.792969 202.03125 82.273438 202.484375 83.765625 C 202.9375 85.257812 203.351562 86.757812 203.730469 88.269531 C 204.109375 89.78125 204.449219 91.304688 204.753906 92.832031 C 205.058594 94.359375 205.324219 95.894531 205.554688 97.4375 C 205.78125 98.980469 205.972656 100.527344 206.125 102.078125 C 206.277344 103.628906 206.390625 105.183594 206.46875 106.738281 C 206.546875 108.296875 206.582031 109.855469 206.582031 111.414062 Z M 206.582031 111.414062 " fill-opacity="1" fill-rule="nonzero"/><path fill="#46cc6b" d="M 189.582031 111.414062 C 189.582031 112.691406 189.550781 113.972656 189.488281 115.25 C 189.425781 116.53125 189.332031 117.804688 189.207031 119.082031 C 189.082031 120.355469 188.925781 121.625 188.738281 122.890625 C 188.550781 124.15625 188.332031 125.417969 188.082031 126.675781 C 187.832031 127.929688 187.550781 129.179688 187.238281 130.421875 C 186.929688 131.664062 186.585938 132.898438 186.214844 134.121094 C 185.84375 135.347656 185.441406 136.5625 185.011719 137.769531 C 184.582031 138.972656 184.121094 140.167969 183.628906 141.351562 C 183.140625 142.535156 182.621094 143.703125 182.074219 144.859375 C 181.527344 146.019531 180.953125 147.160156 180.347656 148.292969 C 179.746094 149.421875 179.117188 150.535156 178.457031 151.632812 C 177.800781 152.730469 177.113281 153.8125 176.402344 154.875 C 175.691406 155.941406 174.957031 156.988281 174.195312 158.015625 C 173.429688 159.042969 172.644531 160.054688 171.832031 161.042969 C 171.019531 162.03125 170.183594 163 169.324219 163.949219 C 168.464844 164.898438 167.582031 165.828125 166.679688 166.730469 C 165.773438 167.636719 164.847656 168.519531 163.898438 169.378906 C 162.949219 170.238281 161.980469 171.074219 160.992188 171.886719 C 160.003906 172.699219 158.996094 173.488281 157.964844 174.25 C 156.9375 175.011719 155.894531 175.75 154.828125 176.460938 C 153.765625 177.171875 152.683594 177.855469 151.585938 178.515625 C 150.488281 179.171875 149.375 179.804688 148.246094 180.40625 C 147.117188 181.011719 145.972656 181.585938 144.816406 182.132812 C 143.660156 182.683594 142.492188 183.199219 141.308594 183.691406 C 140.125 184.179688 138.933594 184.640625 137.726562 185.074219 C 136.523438 185.503906 135.308594 185.90625 134.082031 186.277344 C 132.859375 186.648438 131.625 186.988281 130.382812 187.300781 C 129.140625 187.613281 127.894531 187.894531 126.640625 188.140625 C 125.382812 188.390625 124.121094 188.609375 122.855469 188.800781 C 121.589844 188.988281 120.320312 189.144531 119.046875 189.269531 C 117.773438 189.394531 116.5 189.488281 115.21875 189.550781 C 113.941406 189.613281 112.664062 189.644531 111.382812 189.644531 C 110.101562 189.644531 108.824219 189.613281 107.546875 189.550781 C 106.265625 189.488281 104.992188 189.394531 103.71875 189.269531 C 102.445312 189.144531 101.175781 188.988281 99.910156 188.800781 C 98.640625 188.609375 97.382812 188.390625 96.125 188.140625 C 94.871094 187.894531 93.621094 187.613281 92.382812 187.300781 C 91.140625 186.988281 89.90625 186.648438 88.683594 186.277344 C 87.457031 185.90625 86.242188 185.503906 85.039062 185.074219 C 83.832031 184.640625 82.640625 184.179688 81.457031 183.691406 C 80.273438 183.199219 79.105469 182.683594 77.949219 182.132812 C 76.789062 181.585938 75.648438 181.011719 74.519531 180.40625 C 73.390625 179.804688 72.277344 179.171875 71.179688 178.515625 C 70.082031 177.855469 69 177.171875 67.9375 176.460938 C 66.871094 175.75 65.828125 175.011719 64.796875 174.25 C 63.769531 173.488281 62.761719 172.699219 61.773438 171.886719 C 60.785156 171.074219 59.816406 170.238281 58.867188 169.378906 C 57.917969 168.519531 56.992188 167.636719 56.085938 166.730469 C 55.179688 165.828125 54.300781 164.898438 53.441406 163.949219 C 52.582031 163 51.746094 162.03125 50.933594 161.042969 C 50.121094 160.054688 49.332031 159.042969 48.570312 158.015625 C 47.808594 156.988281 47.074219 155.941406 46.359375 154.875 C 45.648438 153.8125 44.964844 152.730469 44.308594 151.632812 C 43.648438 150.535156 43.019531 149.421875 42.414062 148.292969 C 41.8125 147.160156 41.238281 146.019531 40.691406 144.859375 C 40.144531 143.703125 39.625 142.535156 39.136719 141.351562 C 38.644531 140.167969 38.183594 138.972656 37.753906 137.769531 C 37.324219 136.5625 36.921875 135.347656 36.550781 134.121094 C 36.179688 132.898438 35.835938 131.664062 35.527344 130.421875 C 35.214844 129.179688 34.933594 127.929688 34.683594 126.675781 C 34.433594 125.417969 34.214844 124.15625 34.027344 122.890625 C 33.839844 121.625 33.683594 120.355469 33.558594 119.082031 C 33.433594 117.804688 33.339844 116.53125 33.277344 115.25 C 33.214844 113.972656 33.183594 112.691406 33.183594 111.414062 C 33.183594 110.132812 33.214844 108.851562 33.277344 107.574219 C 33.339844 106.292969 33.433594 105.019531 33.558594 103.742188 C 33.683594 102.46875 33.839844 101.199219 34.027344 99.933594 C 34.214844 98.667969 34.433594 97.40625 34.683594 96.148438 C 34.933594 94.894531 35.214844 93.644531 35.527344 92.402344 C 35.835938 91.160156 36.179688 89.925781 36.550781 88.703125 C 36.921875 87.476562 37.324219 86.261719 37.753906 85.054688 C 38.183594 83.851562 38.644531 82.65625 39.136719 81.472656 C 39.625 80.289062 40.144531 79.121094 40.691406 77.964844 C 41.238281 76.804688 41.8125 75.664062 42.414062 74.535156 C 43.019531 73.402344 43.648438 72.289062 44.308594 71.191406 C 44.964844 70.09375 45.648438 69.011719 46.359375 67.949219 C 47.074219 66.882812 47.808594 65.835938 48.570312 64.808594 C 49.332031 63.78125 50.121094 62.769531 50.933594 61.78125 C 51.746094 60.792969 52.582031 59.824219 53.441406 58.875 C 54.300781 57.925781 55.179688 57 56.085938 56.09375 C 56.992188 55.1875 57.917969 54.304688 58.867188 53.445312 C 59.816406 52.585938 60.785156 51.75 61.773438 50.9375 C 62.761719 50.125 63.769531 49.335938 64.796875 48.574219 C 65.828125 47.8125 66.871094 47.074219 67.9375 46.363281 C 69 45.652344 70.082031 44.96875 71.179688 44.308594 C 72.277344 43.652344 73.390625 43.019531 74.519531 42.417969 C 75.648438 41.8125 76.789062 41.238281 77.949219 40.691406 C 79.105469 40.144531 80.273438 39.625 81.457031 39.132812 C 82.640625 38.644531 83.832031 38.183594 85.039062 37.753906 C 86.242188 37.320312 87.457031 36.917969 88.683594 36.546875 C 89.90625 36.175781 91.140625 35.835938 92.382812 35.523438 C 93.621094 35.210938 94.871094 34.933594 96.125 34.683594 C 97.382812 34.433594 98.640625 34.214844 99.910156 34.027344 C 101.175781 33.835938 102.445312 33.679688 103.71875 33.554688 C 104.992188 33.429688 106.265625 33.335938 107.546875 33.273438 C 108.824219 33.210938 110.101562 33.179688 111.382812 33.179688 C 112.664062 33.179688 113.941406 33.210938 115.21875 33.273438 C 116.5 33.335938 117.773438 33.429688 119.046875 33.554688 C 120.320312 33.679688 121.589844 33.835938 122.855469 34.027344 C 124.121094 34.214844 125.382812 34.433594 126.640625 34.683594 C 127.894531 34.933594 129.140625 35.210938 130.382812 35.523438 C 131.625 35.835938 132.859375 36.175781 134.082031 36.546875 C 135.308594 36.917969 136.523438 37.320312 137.726562 37.753906 C 138.933594 38.183594 140.125 38.644531 141.308594 39.132812 C 142.492188 39.625 143.660156 40.144531 144.816406 40.691406 C 145.972656 41.238281 147.117188 41.8125 148.246094 42.417969 C 149.375 43.019531 150.488281 43.652344 151.585938 44.308594 C 152.683594 44.96875 153.765625 45.652344 154.828125 46.363281 C 155.894531 47.074219 156.9375 47.8125 157.964844 48.574219 C 158.996094 49.335938 160.003906 50.125 160.992188 50.9375 C 161.980469 51.75 162.949219 52.585938 163.898438 53.445312 C 164.847656 54.304688 165.773438 55.1875 166.679688 56.09375 C 167.582031 57 168.464844 57.925781 169.324219 58.875 C 170.183594 59.824219 171.019531 60.792969 171.832031 61.78125 C 172.644531 62.769531 173.429688 63.78125 174.195312 64.808594 C 174.957031 65.835938 175.691406 66.882812 176.402344 67.949219 C 177.113281 69.011719 177.800781 70.09375 178.457031 71.191406 C 179.117188 72.289062 179.746094 73.402344 180.347656 74.535156 C 180.953125 75.664062 181.527344 76.804688 182.074219 77.964844 C 182.621094 79.121094 183.140625 80.289062 183.628906 81.472656 C 184.121094 82.65625 184.582031 83.851562 185.011719 85.054688 C 185.441406 86.261719 185.84375 87.476562 186.214844 88.703125 C 186.585938 89.925781 186.929688 91.160156 187.238281 92.402344 C 187.550781 93.644531 187.832031 94.894531 188.082031 96.148438 C 188.332031 97.40625 188.550781 98.667969 188.738281 99.933594 C 188.925781 101.199219 189.082031 102.46875 189.207031 103.742188 C 189.332031 105.019531 189.425781 106.292969 189.488281 107.574219 C 189.550781 108.851562 189.582031 110.132812 189.582031 111.414062 Z M 189.582031 111.414062 " fill-opacity="1" fill-rule="nonzero"/><path fill="#ffffff" d="M 99.921875 93.851562 L 95.972656 82.042969 C 95.746094 81.371094 95.453125 80.726562 95.089844 80.113281 C 94.730469 79.503906 94.308594 78.933594 93.828125 78.410156 C 93.34375 77.886719 92.8125 77.421875 92.234375 77.011719 C 91.65625 76.597656 91.039062 76.253906 90.386719 75.972656 C 89.730469 75.691406 89.054688 75.480469 88.359375 75.34375 C 87.664062 75.207031 86.957031 75.140625 86.246094 75.152344 C 85.535156 75.164062 84.835938 75.25 84.140625 75.40625 C 83.449219 75.566406 82.78125 75.796875 82.136719 76.097656 L 75.761719 79.066406 C 75.246094 79.308594 74.753906 79.589844 74.289062 79.914062 C 73.820312 80.238281 73.382812 80.597656 72.976562 80.996094 C 72.570312 81.394531 72.199219 81.824219 71.863281 82.28125 C 71.527344 82.742188 71.234375 83.226562 70.984375 83.738281 C 70.730469 84.246094 70.523438 84.773438 70.359375 85.320312 C 70.195312 85.867188 70.078125 86.421875 70.007812 86.984375 C 69.9375 87.550781 69.917969 88.117188 69.941406 88.683594 C 69.96875 89.253906 70.042969 89.816406 70.164062 90.371094 C 74.152344 108.828125 88.816406 153.023438 138.328125 158.535156 C 139.3125 158.644531 140.289062 158.609375 141.261719 158.433594 C 142.234375 158.253906 143.160156 157.941406 144.042969 157.488281 C 144.921875 157.039062 145.71875 156.472656 146.433594 155.789062 C 147.148438 155.105469 147.75 154.332031 148.234375 153.472656 L 151.523438 147.660156 C 151.847656 147.085938 152.117188 146.480469 152.324219 145.851562 C 152.53125 145.222656 152.675781 144.578125 152.757812 143.921875 C 152.835938 143.261719 152.851562 142.601562 152.804688 141.941406 C 152.753906 141.28125 152.640625 140.628906 152.464844 139.992188 C 152.289062 139.351562 152.050781 138.738281 151.753906 138.144531 C 151.453125 137.550781 151.101562 136.996094 150.691406 136.472656 C 150.285156 135.949219 149.832031 135.472656 149.328125 135.039062 C 148.828125 134.605469 148.285156 134.226562 147.710938 133.898438 L 147.640625 133.863281 L 138.816406 128.953125 C 138.34375 128.691406 137.851562 128.464844 137.339844 128.28125 C 136.828125 128.097656 136.304688 127.957031 135.773438 127.855469 C 135.238281 127.753906 134.699219 127.699219 134.15625 127.6875 C 133.613281 127.671875 133.074219 127.703125 132.535156 127.777344 C 132 127.851562 131.46875 127.96875 130.953125 128.128906 C 130.433594 128.285156 129.929688 128.488281 129.441406 128.726562 C 128.957031 128.96875 128.492188 129.246094 128.050781 129.5625 C 127.609375 129.878906 127.195312 130.226562 126.808594 130.609375 C 126.425781 130.988281 126.015625 131.335938 125.574219 131.652344 C 125.136719 131.964844 124.675781 132.242188 124.191406 132.484375 C 123.710938 132.722656 123.210938 132.925781 122.695312 133.085938 C 122.179688 133.246094 121.65625 133.363281 121.121094 133.4375 C 120.585938 133.515625 120.050781 133.546875 119.507812 133.535156 C 118.96875 133.527344 118.433594 133.472656 117.902344 133.375 C 117.371094 133.277344 116.851562 133.140625 116.34375 132.960938 C 115.835938 132.78125 115.34375 132.558594 114.871094 132.300781 C 109.503906 129.351562 102.148438 124.324219 96.996094 116.890625 C 96.414062 116.058594 95.96875 115.160156 95.660156 114.191406 C 95.347656 113.226562 95.1875 112.234375 95.175781 111.21875 C 95.164062 110.203125 95.300781 109.207031 95.589844 108.234375 C 95.875 107.261719 96.300781 106.351562 96.859375 105.503906 L 98.757812 102.648438 C 99.621094 101.351562 100.152344 99.929688 100.359375 98.386719 C 100.5625 96.839844 100.417969 95.332031 99.921875 93.851562 Z M 99.921875 93.851562 " fill-opacity="1" fill-rule="nonzero"/></svg>